<?xml version="1.0" encoding="UTF-8"?>
<!DOCTYPE svg PUBLIC "-//W3C//DTD SVG 1.1//EN" "http://www.w3.org/Graphics/SVG/1.1/DTD/svg11.dtd">
<svg xmlns="http://www.w3.org/2000/svg" version="1.1" width="559px" height="447px" style="shape-rendering:geometricPrecision; text-rendering:geometricPrecision; image-rendering:optimizeQuality; fill-rule:evenodd; clip-rule:evenodd" xmlns:xlink="http://www.w3.org/1999/xlink">
<g><path style="opacity:1" fill="#1a426d" d="M 275.5,92.5 C 277.343,93.2829 279.343,93.9495 281.5,94.5C 282.706,96.4841 282.706,98.4841 281.5,100.5C 278.838,101.852 276.005,102.519 273,102.5C 269.854,102.029 267.021,101.029 264.5,99.5C 264.66,101.199 264.494,102.866 264,104.5C 262.951,102.893 261.451,102.227 259.5,102.5C 261.178,100.113 262.511,97.4464 263.5,94.5C 267.336,93.6223 271.336,92.9557 275.5,92.5 Z"/></g>
<g><path style="opacity:0.988" fill="#365c75" d="M 316.5,94.5 C 315.167,95.5 315.167,96.5 316.5,97.5C 311.57,97.8025 306.737,97.4692 302,96.5C 300.647,97.6853 299.48,99.0186 298.5,100.5C 299.09,101.799 300.09,102.632 301.5,103C 305.821,103.499 310.154,103.666 314.5,103.5C 309.447,105.26 304.114,105.927 298.5,105.5C 294.746,104.172 293.579,101.506 295,97.5C 295.374,96.5838 295.874,95.7504 296.5,95C 303.137,93.2072 309.804,93.0406 316.5,94.5 Z"/></g>
<g><path style="opacity:1" fill="#12406a" d="M 316.5,97.5 C 316.396,99.7028 315.73,101.703 314.5,103.5C 310.154,103.666 305.821,103.499 301.5,103C 300.09,102.632 299.09,101.799 298.5,100.5C 299.48,99.0186 300.647,97.6853 302,96.5C 306.737,97.4692 311.57,97.8025 316.5,97.5 Z"/></g>
<g><path style="opacity:1" fill="#325376" d="M 257.5,120.5 C 257.25,117.786 257.083,115.119 257,112.5C 258.833,115.333 260.333,115.167 261.5,112C 260.207,111.51 258.873,111.343 257.5,111.5C 257.5,110.5 257.5,109.5 257.5,108.5C 256.127,108.343 254.793,108.51 253.5,109C 252.616,110.72 251.283,111.886 249.5,112.5C 252.748,106.736 256.248,101.069 260,95.5C 261.011,94.6634 262.178,94.33 263.5,94.5C 262.511,97.4464 261.178,100.113 259.5,102.5C 261.451,102.227 262.951,102.893 264,104.5C 264.494,102.866 264.66,101.199 264.5,99.5C 267.021,101.029 269.854,102.029 273,102.5C 276.005,102.519 278.838,101.852 281.5,100.5C 282.706,98.4841 282.706,96.4841 281.5,94.5C 279.343,93.9495 277.343,93.2829 275.5,92.5C 283.34,90.8637 286.173,93.8637 284,101.5C 283.097,102.701 281.931,103.535 280.5,104C 276.032,104.493 271.698,105.493 267.5,107C 263.536,111.123 260.203,115.623 257.5,120.5 Z"/></g>
<g><path style="opacity:1" fill="#41b7a9" d="M 325.5,107.5 C 320.874,111.49 316.207,115.49 311.5,119.5C 311.351,118.448 311.517,117.448 312,116.5C 315.334,114.358 316.501,111.525 315.5,108C 311.621,108.363 308.454,110.197 306,113.5C 305.014,112.829 303.847,112.829 302.5,113.5C 305.535,111.983 308.201,109.817 310.5,107C 316.675,106.164 319.009,102.664 317.5,96.5C 321.111,96.0441 324.444,96.7108 327.5,98.5C 327.833,99 328.167,99.5 328.5,100C 326.807,102.22 325.807,104.72 325.5,107.5 Z"/></g>
<g><path style="opacity:1" fill="#2bb3a2" d="M 311.5,119.5 C 309.402,118.037 307.402,118.204 305.5,120C 303.151,122.07 300.984,124.237 299,126.5C 299.363,124.027 300.03,121.693 301,119.5C 299.388,122.079 297.888,122.079 296.5,119.5C 299.018,117.929 301.018,115.929 302.5,113.5C 303.847,112.829 305.014,112.829 306,113.5C 308.454,110.197 311.621,108.363 315.5,108C 316.501,111.525 315.334,114.358 312,116.5C 311.517,117.448 311.351,118.448 311.5,119.5 Z"/></g>
<g><path style="opacity:1" fill="#1f466d" d="M 257.5,120.5 C 257.5,121.167 257.167,121.5 256.5,121.5C 255.292,122.234 253.959,122.567 252.5,122.5C 252.657,123.873 252.49,125.207 252,126.5C 250.605,125.57 249.105,125.57 247.5,126.5C 244.937,126.263 244.937,125.763 247.5,125C 246.264,123.612 244.931,122.446 243.5,121.5C 244.769,117.946 246.769,114.946 249.5,112.5C 251.283,111.886 252.616,110.72 253.5,109C 254.793,108.51 256.127,108.343 257.5,108.5C 257.5,109.5 257.5,110.5 257.5,111.5C 258.873,111.343 260.207,111.51 261.5,112C 260.333,115.167 258.833,115.333 257,112.5C 257.083,115.119 257.25,117.786 257.5,120.5 Z"/></g>
<g><path style="opacity:1" fill="#5bb9ae" d="M 316.5,94.5 C 319.518,94.3354 322.518,94.502 325.5,95C 328.403,95.5686 330.403,97.2352 331.5,100C 330.321,103.209 328.321,105.709 325.5,107.5C 325.807,104.72 326.807,102.22 328.5,100C 328.167,99.5 327.833,99 327.5,98.5C 324.444,96.7108 321.111,96.0441 317.5,96.5C 319.009,102.664 316.675,106.164 310.5,107C 308.201,109.817 305.535,111.983 302.5,113.5C 301.018,115.929 299.018,117.929 296.5,119.5C 297.888,122.079 299.388,122.079 301,119.5C 300.03,121.693 299.363,124.027 299,126.5C 300.984,124.237 303.151,122.07 305.5,120C 307.402,118.204 309.402,118.037 311.5,119.5C 306.142,124.186 300.475,128.519 294.5,132.5C 294.5,131.167 294.5,129.833 294.5,128.5C 295.5,128.5 296.5,128.5 297.5,128.5C 297.662,126.473 297.495,124.473 297,122.5C 294.26,123.144 291.76,124.311 289.5,126C 287.19,126.497 284.857,126.663 282.5,126.5C 291.117,121.599 298.95,115.599 306,108.5C 306.167,108.167 306.333,107.833 306.5,107.5C 303.694,106.832 301.028,106.166 298.5,105.5C 304.114,105.927 309.447,105.26 314.5,103.5C 315.73,101.703 316.396,99.7028 316.5,97.5C 315.167,96.5 315.167,95.5 316.5,94.5 Z"/></g>
<g><path style="opacity:1" fill="#244d70" d="M 243.5,121.5 C 244.931,122.446 246.264,123.612 247.5,125C 244.937,125.763 244.937,126.263 247.5,126.5C 249.105,125.57 250.605,125.57 252,126.5C 252.49,125.207 252.657,123.873 252.5,122.5C 253.959,122.567 255.292,122.234 256.5,121.5C 255.331,124.511 253.664,127.178 251.5,129.5C 249.943,130.466 248.61,131.8 247.5,133.5C 247.624,134.107 247.957,134.44 248.5,134.5C 248.5,134.833 248.5,135.167 248.5,135.5C 247.662,135.842 247.328,136.508 247.5,137.5C 246.833,137.5 246.5,137.833 246.5,138.5C 243.769,139.374 241.602,138.374 240,135.5C 239.503,132.854 239.336,130.187 239.5,127.5C 240.475,125.205 241.808,123.205 243.5,121.5 Z"/></g>
<g><path style="opacity:1" fill="#36b4a4" d="M 294.5,132.5 C 293.609,133.11 292.609,133.443 291.5,133.5C 284.51,135.827 277.843,138.994 271.5,143C 270.207,143.49 268.873,143.657 267.5,143.5C 275.405,137.674 274.071,136.008 263.5,138.5C 265.026,136.87 267.026,136.037 269.5,136C 268.944,135.617 268.611,135.117 268.5,134.5C 272.833,131.331 277.5,128.664 282.5,126.5C 284.857,126.663 287.19,126.497 289.5,126C 291.76,124.311 294.26,123.144 297,122.5C 297.495,124.473 297.662,126.473 297.5,128.5C 296.5,128.5 295.5,128.5 294.5,128.5C 294.5,129.833 294.5,131.167 294.5,132.5 Z"/></g>
<g><path style="opacity:0.502" fill="#638695" d="M 251.5,129.5 C 251.047,131.565 250.047,133.232 248.5,134.5C 247.957,134.44 247.624,134.107 247.5,133.5C 248.61,131.8 249.943,130.466 251.5,129.5 Z"/></g>
<g><path style="opacity:0.847" fill="#69ada9" d="M 343.5,140.5 C 341.463,139.154 339.463,137.82 337.5,136.5C 335.304,135.188 332.97,134.021 330.5,133C 324.036,131.962 323.369,133.462 328.5,137.5C 327.167,137.5 325.833,137.5 324.5,137.5C 323.791,136.596 322.791,136.263 321.5,136.5C 320.07,135.463 318.403,134.796 316.5,134.5C 324.14,130.402 331.806,130.569 339.5,135C 341.464,136.451 342.797,138.284 343.5,140.5 Z"/></g>
<g><path style="opacity:0.894" fill="#4b6c84" d="M 316.5,134.5 C 318.403,134.796 320.07,135.463 321.5,136.5C 312.991,138.724 304.658,140.391 296.5,141.5C 302.537,137.597 309.204,135.264 316.5,134.5 Z"/></g>
<g><path style="opacity:0.929" fill="#4cb0a8" d="M 239.5,127.5 C 239.336,130.187 239.503,132.854 240,135.5C 241.602,138.374 243.769,139.374 246.5,138.5C 247.167,138.5 247.5,138.167 247.5,137.5C 247.328,136.508 247.662,135.842 248.5,135.5C 248.5,136.833 248.5,138.167 248.5,139.5C 255.046,137.431 261.712,135.764 268.5,134.5C 268.611,135.117 268.944,135.617 269.5,136C 267.026,136.037 265.026,136.87 263.5,138.5C 259.961,138.772 256.294,139.772 252.5,141.5C 251.446,141.32 250.446,140.987 249.5,140.5C 246.422,142.767 243.089,143.1 239.5,141.5C 239.657,142.873 239.49,144.207 239,145.5C 238.242,140.427 236.742,139.761 234.5,143.5C 234.95,137.676 236.616,132.342 239.5,127.5 Z"/></g>
<g><path style="opacity:1" fill="#2fb4a3" d="M 267.5,143.5 C 266.527,143.987 265.527,144.487 264.5,145C 265.337,146.011 265.67,147.178 265.5,148.5C 264.167,148.833 262.833,149.167 261.5,149.5C 255.158,150.561 248.825,150.728 242.5,150C 240.137,150.589 239.137,152.089 239.5,154.5C 237.302,154.12 235.635,154.787 234.5,156.5C 233.685,157.429 232.852,158.429 232,159.5C 231,158.167 230,156.833 229,155.5C 227.933,156.191 226.766,156.691 225.5,157C 226.833,158.84 226.666,159.34 225,158.5C 224.749,160.433 224.249,162.266 223.5,164C 224.34,165.666 223.84,165.833 222,164.5C 221.102,167.069 219.935,169.402 218.5,171.5C 218.865,168.921 218.865,166.588 218.5,164.5C 223.129,156.883 228.462,149.883 234.5,143.5C 236.742,139.761 238.242,140.427 239,145.5C 239.49,144.207 239.657,142.873 239.5,141.5C 243.089,143.1 246.422,142.767 249.5,140.5C 250.446,140.987 251.446,141.32 252.5,141.5C 256.294,139.772 259.961,138.772 263.5,138.5C 274.071,136.008 275.405,137.674 267.5,143.5 Z"/></g>
<g><path style="opacity:1" fill="#144069" d="M 321.5,136.5 C 322.791,136.263 323.791,136.596 324.5,137.5C 325.091,138.151 325.757,138.818 326.5,139.5C 326.291,140.086 325.957,140.586 325.5,141C 318.518,142.995 311.518,144.829 304.5,146.5C 304.196,145.85 303.863,145.183 303.5,144.5C 305.5,143.833 307.5,143.167 309.5,142.5C 308.167,142.167 306.833,141.833 305.5,141.5C 301.824,142.171 298.157,142.838 294.5,143.5C 294.833,142.833 295.167,142.167 295.5,141.5C 295.833,141.5 296.167,141.5 296.5,141.5C 304.658,140.391 312.991,138.724 321.5,136.5 Z"/></g>
<g><path style="opacity:0.486" fill="#75beb7" d="M 291.5,133.5 C 283.168,139.002 274.501,144.002 265.5,148.5C 265.67,147.178 265.337,146.011 264.5,145C 265.527,144.487 266.527,143.987 267.5,143.5C 268.873,143.657 270.207,143.49 271.5,143C 277.843,138.994 284.51,135.827 291.5,133.5 Z"/></g>
<g><path style="opacity:1" fill="#133f6b" d="M 304.5,146.5 C 302.786,147.738 300.786,148.405 298.5,148.5C 298.5,149.5 298.5,150.5 298.5,151.5C 292.057,151.035 286.891,153.369 283,158.5C 280.872,158.073 278.705,158.573 276.5,160C 274.845,161.444 274.178,163.278 274.5,165.5C 271.513,164.742 268.513,163.909 265.5,163C 267.141,161.871 268.141,160.371 268.5,158.5C 278.075,155.047 286.742,150.047 294.5,143.5C 298.157,142.838 301.824,142.171 305.5,141.5C 306.833,141.833 308.167,142.167 309.5,142.5C 307.5,143.167 305.5,143.833 303.5,144.5C 303.863,145.183 304.196,145.85 304.5,146.5 Z"/></g>
<g><path style="opacity:0.007" fill="#fefffe" d="M 328.5,144.5 C 329.5,144.5 330.5,144.5 331.5,144.5C 331.5,145.167 331.5,145.833 331.5,146.5C 330.29,146.068 329.29,145.401 328.5,144.5 Z"/></g>
<g><path style="opacity:0.961" fill="#3b5e77" d="M 295.5,141.5 C 295.167,142.167 294.833,142.833 294.5,143.5C 286.742,150.047 278.075,155.047 268.5,158.5C 265.49,159.653 263.49,161.82 262.5,165C 260.03,165.989 257.697,167.155 255.5,168.5C 260.28,162.055 266.28,157.055 273.5,153.5C 275.027,153.573 276.027,152.906 276.5,151.5C 282.351,147.406 288.685,144.073 295.5,141.5 Z"/></g>
<g><path style="opacity:0.976" fill="#3d5e7b" d="M 324.5,137.5 C 325.833,137.5 327.167,137.5 328.5,137.5C 329.242,139.98 330.242,142.313 331.5,144.5C 330.5,144.5 329.5,144.5 328.5,144.5C 321.277,144.911 314.277,146.411 307.5,149C 296.19,153.988 285.19,159.488 274.5,165.5C 274.178,163.278 274.845,161.444 276.5,160C 278.705,158.573 280.872,158.073 283,158.5C 286.891,153.369 292.057,151.035 298.5,151.5C 298.5,150.5 298.5,149.5 298.5,148.5C 300.786,148.405 302.786,147.738 304.5,146.5C 311.518,144.829 318.518,142.995 325.5,141C 325.957,140.586 326.291,140.086 326.5,139.5C 325.757,138.818 325.091,138.151 324.5,137.5 Z"/></g>
<g><path style="opacity:1" fill="#42b3a7" d="M 337.5,136.5 C 335.5,136.167 333.5,135.833 331.5,135.5C 331.151,138.99 332.651,141.323 336,142.5C 336.498,144.527 336.331,146.527 335.5,148.5C 335.737,151.063 336.237,151.063 337,148.5C 337.667,149.5 337.667,150.5 337,151.5C 333.436,151.947 331.436,153.947 331,157.5C 330.311,156.643 329.478,155.977 328.5,155.5C 325.586,157.603 322.586,159.437 319.5,161C 317.875,161.853 317.542,162.853 318.5,164C 316.276,166.645 313.61,167.145 310.5,165.5C 317.984,161.204 324.817,155.871 331,149.5C 331.483,148.552 331.649,147.552 331.5,146.5C 331.5,145.833 331.5,145.167 331.5,144.5C 330.242,142.313 329.242,139.98 328.5,137.5C 323.369,133.462 324.036,131.962 330.5,133C 332.97,134.021 335.304,135.188 337.5,136.5 Z"/></g>
<g><path style="opacity:0.227" fill="#9fb8be" d="M 276.5,151.5 C 276.027,152.906 275.027,153.573 273.5,153.5C 273.973,152.094 274.973,151.427 276.5,151.5 Z"/></g>
<g><path style="opacity:0.882" fill="#5cbbae" d="M 343.5,140.5 C 344.965,141.406 345.965,142.739 346.5,144.5C 344.775,148.829 342.942,153.162 341,157.5C 331.76,165.917 321.593,172.917 310.5,178.5C 311.714,176.851 313.047,175.185 314.5,173.5C 315.965,174.609 316.965,174.109 317.5,172C 322.348,169.288 327.015,166.454 331.5,163.5C 331.351,162.448 331.517,161.448 332,160.5C 335,156.487 338.5,152.987 342.5,150C 343.367,146.895 343.701,143.728 343.5,140.5 Z"/></g>
<g><path style="opacity:0.914" fill="#60bcb0" d="M 261.5,149.5 C 255.46,151.679 249.127,153.179 242.5,154C 239.642,155.694 237.309,157.861 235.5,160.5C 235.167,159.167 234.833,157.833 234.5,156.5C 235.635,154.787 237.302,154.12 239.5,154.5C 239.137,152.089 240.137,150.589 242.5,150C 248.825,150.728 255.158,150.561 261.5,149.5 Z"/></g>
<g><path style="opacity:1" fill="#28b3a1" d="M 337.5,136.5 C 339.463,137.82 341.463,139.154 343.5,140.5C 343.701,143.728 343.367,146.895 342.5,150C 338.5,152.987 335,156.487 332,160.5C 331.517,161.448 331.351,162.448 331.5,163.5C 327.015,166.454 322.348,169.288 317.5,172C 316.965,174.109 315.965,174.609 314.5,173.5C 313.047,175.185 311.714,176.851 310.5,178.5C 307.854,176.396 304.854,174.729 301.5,173.5C 301.709,172.914 302.043,172.414 302.5,172C 305.043,171.86 307.377,171.194 309.5,170C 308.833,169.667 308.167,169.333 307.5,169C 309.426,168.578 310.426,167.411 310.5,165.5C 313.61,167.145 316.276,166.645 318.5,164C 317.542,162.853 317.875,161.853 319.5,161C 322.586,159.437 325.586,157.603 328.5,155.5C 329.478,155.977 330.311,156.643 331,157.5C 331.436,153.947 333.436,151.947 337,151.5C 337.667,150.5 337.667,149.5 337,148.5C 336.237,151.063 335.737,151.063 335.5,148.5C 336.331,146.527 336.498,144.527 336,142.5C 332.651,141.323 331.151,138.99 331.5,135.5C 333.5,135.833 335.5,136.167 337.5,136.5 Z"/></g>
<g><path style="opacity:1" fill="#21486f" d="M 268.5,158.5 C 268.141,160.371 267.141,161.871 265.5,163C 268.513,163.909 271.513,164.742 274.5,165.5C 273.674,167.264 272.341,168.598 270.5,169.5C 268.278,169.178 266.444,169.845 265,171.5C 264.667,170.833 264.333,170.167 264,169.5C 259.79,173.727 256.29,178.56 253.5,184C 251.527,184.495 249.527,184.662 247.5,184.5C 247.5,182.167 247.5,179.833 247.5,177.5C 249.454,173.968 252.121,170.968 255.5,168.5C 257.697,167.155 260.03,165.989 262.5,165C 263.49,161.82 265.49,159.653 268.5,158.5 Z"/></g>
<g><path style="opacity:0.996" fill="#4bb7aa" d="M 310.5,165.5 C 310.426,167.411 309.426,168.578 307.5,169C 308.167,169.333 308.833,169.667 309.5,170C 307.377,171.194 305.043,171.86 302.5,172C 302.043,172.414 301.709,172.914 301.5,173.5C 304.854,174.729 307.854,176.396 310.5,178.5C 303.642,183.002 296.309,186.668 288.5,189.5C 291.027,187.17 293.694,184.836 296.5,182.5C 298.743,181.526 301.076,181.192 303.5,181.5C 303.351,180.448 303.517,179.448 304,178.5C 305.183,179.731 306.349,179.731 307.5,178.5C 303.5,177.068 299.667,177.401 296,179.5C 292.676,178.95 289.509,178.283 286.5,177.5C 294.492,173.504 302.492,169.504 310.5,165.5 Z"/></g>
<g><path style="opacity:1" fill="#3ab6a5" d="M 234.5,156.5 C 234.833,157.833 235.167,159.167 235.5,160.5C 229.159,167.219 226.826,175.219 228.5,184.5C 227.51,188.042 227.51,191.376 228.5,194.5C 223.253,193.089 219.753,189.755 218,184.5C 217.371,180.129 217.537,175.796 218.5,171.5C 219.935,169.402 221.102,167.069 222,164.5C 223.84,165.833 224.34,165.666 223.5,164C 224.249,162.266 224.749,160.433 225,158.5C 226.666,159.34 226.833,158.84 225.5,157C 226.766,156.691 227.933,156.191 229,155.5C 230,156.833 231,158.167 232,159.5C 232.852,158.429 233.685,157.429 234.5,156.5 Z"/></g>
<g><path style="opacity:1" fill="#40b5a6" d="M 286.5,177.5 C 289.509,178.283 292.676,178.95 296,179.5C 299.667,177.401 303.5,177.068 307.5,178.5C 306.349,179.731 305.183,179.731 304,178.5C 303.517,179.448 303.351,180.448 303.5,181.5C 301.076,181.192 298.743,181.526 296.5,182.5C 293.694,184.836 291.027,187.17 288.5,189.5C 286.5,190.167 284.5,190.833 282.5,191.5C 279.43,191.368 276.43,191.701 273.5,192.5C 273.34,190.801 273.506,189.134 274,187.5C 277.457,189.007 280.624,188.507 283.5,186C 282.167,185.833 280.833,185.667 279.5,185.5C 274.422,184.859 269.422,185.526 264.5,187.5C 260.736,186.829 257.236,187.829 254,190.5C 249.399,189.858 244.899,189.191 240.5,188.5C 242.099,188.768 243.432,188.434 244.5,187.5C 248.5,186.833 252.5,186.167 256.5,185.5C 256.56,186.043 256.893,186.376 257.5,186.5C 267.251,183.693 276.918,180.693 286.5,177.5 Z"/></g>
<g><path style="opacity:0.946" fill="#365e74" d="M 270.5,169.5 C 267.905,171.816 265.239,174.149 262.5,176.5C 261.714,180.433 259.714,183.433 256.5,185.5C 252.5,186.167 248.5,186.833 244.5,187.5C 243.649,183.804 244.649,180.471 247.5,177.5C 247.5,179.833 247.5,182.167 247.5,184.5C 249.527,184.662 251.527,184.495 253.5,184C 256.29,178.56 259.79,173.727 264,169.5C 264.333,170.167 264.667,170.833 265,171.5C 266.444,169.845 268.278,169.178 270.5,169.5 Z"/></g>
<g><path style="opacity:1" fill="#2ab2a1" d="M 228.5,184.5 C 232.433,186.033 236.433,187.367 240.5,188.5C 244.899,189.191 249.399,189.858 254,190.5C 257.236,187.829 260.736,186.829 264.5,187.5C 269.422,185.526 274.422,184.859 279.5,185.5C 280.833,185.667 282.167,185.833 283.5,186C 280.624,188.507 277.457,189.007 274,187.5C 273.506,189.134 273.34,190.801 273.5,192.5C 271.94,192.481 270.44,192.148 269,191.5C 265.863,192.892 262.696,194.059 259.5,195C 251.016,196.413 242.682,196.913 234.5,196.5C 232.214,196.405 230.214,195.738 228.5,194.5C 227.51,191.376 227.51,188.042 228.5,184.5 Z"/></g>
<g><path style="opacity:0.737" fill="#65b6ae" d="M 218.5,164.5 C 218.865,166.588 218.865,168.921 218.5,171.5C 217.537,175.796 217.371,180.129 218,184.5C 219.753,189.755 223.253,193.089 228.5,194.5C 230.214,195.738 232.214,196.405 234.5,196.5C 235.263,197.268 236.263,197.768 237.5,198C 242.915,198.215 248.248,198.715 253.5,199.5C 254.167,200.167 254.833,200.833 255.5,201.5C 251.833,201.5 248.167,201.5 244.5,201.5C 237.796,200.321 231.129,198.487 224.5,196C 212.351,187.463 210.351,176.963 218.5,164.5 Z"/></g>
<g><path style="opacity:0.914" fill="#53b8ae" d="M 273.5,192.5 C 276.43,191.701 279.43,191.368 282.5,191.5C 273.325,195.546 263.659,198.213 253.5,199.5C 248.248,198.715 242.915,198.215 237.5,198C 236.263,197.768 235.263,197.268 234.5,196.5C 242.682,196.913 251.016,196.413 259.5,195C 262.696,194.059 265.863,192.892 269,191.5C 270.44,192.148 271.94,192.481 273.5,192.5 Z"/></g>
<g><path style="opacity:1" fill="#19426a" d="M 277.5,214.5 C 277.611,215.117 277.944,215.617 278.5,216C 275.878,219.144 272.545,220.977 268.5,221.5C 266.227,220.233 264.227,218.567 262.5,216.5C 262.835,217.664 262.835,218.997 262.5,220.5C 261.583,219.873 260.583,219.539 259.5,219.5C 258.128,218.488 256.795,217.488 255.5,216.5C 256.598,215.603 256.598,214.77 255.5,214C 256.5,213.667 257.5,213.333 258.5,213C 255.458,210.158 252.458,207.324 249.5,204.5C 250.171,203.054 251.338,202.388 253,202.5C 255.003,203.983 257.17,205.317 259.5,206.5C 261.034,210.433 264.034,213.599 268.5,216C 271.686,216.596 274.686,216.096 277.5,214.5 Z"/></g>
<g><path style="opacity:1" fill="#3a5c77" d="M 244.5,201.5 C 248.167,201.5 251.833,201.5 255.5,201.5C 258.899,203.388 261.899,205.888 264.5,209C 267.994,210.579 271.327,212.413 274.5,214.5C 285.745,206.392 294.912,208.392 302,220.5C 302.212,223.758 302.712,226.924 303.5,230C 302.934,230.995 302.267,231.828 301.5,232.5C 300.28,229.309 299.447,225.975 299,222.5C 296.157,219.989 293.657,217.156 291.5,214C 287.627,213.73 283.794,213.23 280,212.5C 278.699,212.639 277.866,213.305 277.5,214.5C 274.686,216.096 271.686,216.596 268.5,216C 264.034,213.599 261.034,210.433 259.5,206.5C 257.17,205.317 255.003,203.983 253,202.5C 251.338,202.388 250.171,203.054 249.5,204.5C 252.458,207.324 255.458,210.158 258.5,213C 257.5,213.333 256.5,213.667 255.5,214C 256.598,214.77 256.598,215.603 255.5,216.5C 250.126,212.752 246.459,207.752 244.5,201.5 Z"/></g>
<g><path style="opacity:1" fill="#13406c" d="M 277.5,214.5 C 281.939,214.932 286.272,215.099 290.5,215C 292.333,217.5 294.167,220 296,222.5C 296.667,223.5 296.667,224.5 296,225.5C 291.492,225.787 286.825,225.453 282,224.5C 281.5,224.667 281,224.833 280.5,225C 281.416,225.278 282.082,225.778 282.5,226.5C 281.209,226.263 280.209,226.596 279.5,227.5C 279.167,227.5 278.833,227.5 278.5,227.5C 275.813,227.664 273.146,227.497 270.5,227C 269.536,225.275 268.869,223.441 268.5,221.5C 272.545,220.977 275.878,219.144 278.5,216C 277.944,215.617 277.611,215.117 277.5,214.5 Z"/></g>
<g><path style="opacity:1" fill="#164169" d="M 301.5,232.5 C 300.25,232.423 299.417,231.756 299,230.5C 298.51,231.793 298.343,233.127 298.5,234.5C 293.959,234.052 289.626,234.719 285.5,236.5C 280.415,235.755 276.082,233.588 272.5,230C 272.833,229.833 273.167,229.667 273.5,229.5C 280.269,232.891 287.102,233.225 294,230.5C 294.684,229.216 294.517,228.049 293.5,227C 289.848,226.501 286.182,226.335 282.5,226.5C 282.082,225.778 281.416,225.278 280.5,225C 281,224.833 281.5,224.667 282,224.5C 286.825,225.453 291.492,225.787 296,225.5C 296.667,224.5 296.667,223.5 296,222.5C 294.167,220 292.333,217.5 290.5,215C 286.272,215.099 281.939,214.932 277.5,214.5C 277.866,213.305 278.699,212.639 280,212.5C 283.794,213.23 287.627,213.73 291.5,214C 293.657,217.156 296.157,219.989 299,222.5C 299.447,225.975 300.28,229.309 301.5,232.5 Z"/></g>
<g><path style="opacity:0.914" fill="#315573" d="M 268.5,221.5 C 268.869,223.441 269.536,225.275 270.5,227C 273.146,227.497 275.813,227.664 278.5,227.5C 281.599,231.24 285.599,232.407 290.5,231C 291.993,229.844 291.826,229.01 290,228.5C 286.559,227.618 283.059,227.284 279.5,227.5C 280.209,226.596 281.209,226.263 282.5,226.5C 286.182,226.335 289.848,226.501 293.5,227C 294.517,228.049 294.684,229.216 294,230.5C 287.102,233.225 280.269,232.891 273.5,229.5C 273.167,229.667 272.833,229.833 272.5,230C 276.082,233.588 280.415,235.755 285.5,236.5C 289.626,234.719 293.959,234.052 298.5,234.5C 298.343,233.127 298.51,231.793 299,230.5C 299.417,231.756 300.25,232.423 301.5,232.5C 300.833,233.833 299.833,234.833 298.5,235.5C 295.33,236.265 292.33,237.265 289.5,238.5C 283.928,239.01 278.595,238.177 273.5,236C 270.769,233.374 268.936,230.207 268,226.5C 265.372,223.79 262.539,221.456 259.5,219.5C 260.583,219.539 261.583,219.873 262.5,220.5C 262.835,218.997 262.835,217.664 262.5,216.5C 264.227,218.567 266.227,220.233 268.5,221.5 Z"/></g>
<g><path style="opacity:0.992" fill="#549fab" d="M 278.5,227.5 C 278.833,227.5 279.167,227.5 279.5,227.5C 283.059,227.284 286.559,227.618 290,228.5C 291.826,229.01 291.993,229.844 290.5,231C 285.599,232.407 281.599,231.24 278.5,227.5 Z"/></g>
<g><path style="opacity:0.271" fill="#a9beca" d="M 298.5,235.5 C 296.044,237.868 293.044,238.868 289.5,238.5C 292.33,237.265 295.33,236.265 298.5,235.5 Z"/></g>
<g><path style="opacity:0.075" fill="#9fb1c0" d="M 210.5,264.5 C 211.274,263.853 212.274,263.52 213.5,263.5C 215.03,263.64 216.03,264.307 216.5,265.5C 214.621,264.659 212.621,264.325 210.5,264.5 Z"/></g>
<g><path style="opacity:0.996" fill="#445e77" d="M 310.5,263.5 C 312.467,263.261 314.301,263.594 316,264.5C 316.667,276.833 316.667,289.167 316,301.5C 314.042,302.952 312.042,303.285 310,302.5C 309.187,289.425 309.354,276.425 310.5,263.5 Z"/></g>
<g><path style="opacity:0.961" fill="#2b4b6b" d="M 217.5,291.5 C 220.179,294.789 222.513,294.789 224.5,291.5C 224.098,289.7 223.431,288.033 222.5,286.5C 221.737,285.732 220.737,285.232 219.5,285C 220.337,283.989 220.67,282.822 220.5,281.5C 221.497,281.53 222.164,281.03 222.5,280C 223.802,275.095 225.302,270.262 227,265.5C 228.733,263.398 230.733,263.065 233,264.5C 233.5,277.162 233.667,289.829 233.5,302.5C 231.5,302.5 229.5,302.5 227.5,302.5C 227.665,298.818 227.499,295.152 227,291.5C 226.257,297.012 223.257,298.679 218,296.5C 217.506,294.866 217.34,293.199 217.5,291.5 Z"/></g>
<g><path style="opacity:0.984" fill="#44607c" d="M 294.5,267.5 C 295.315,268.429 296.148,269.429 297,270.5C 297.667,279.167 297.667,287.833 297,296.5C 295.833,299 294,300.833 291.5,302C 287.163,302.752 282.829,303.086 278.5,303C 277.188,296.74 276.522,290.24 276.5,283.5C 276.833,277.167 277.167,270.833 277.5,264.5C 281.108,263.407 284.775,263.24 288.5,264C 291.025,264.424 293.025,265.59 294.5,267.5 Z M 284.5,273.5 C 286.167,273.5 287.833,273.5 289.5,273.5C 289.5,274.5 289.5,275.5 289.5,276.5C 289.666,282.509 289.499,288.509 289,294.5C 287.644,295.38 286.144,295.714 284.5,295.5C 284.333,288.75 284.333,281.416 284.5,273.5 Z"/></g>
<g><path style="opacity:1" fill="#345073" d="M 294.5,267.5 C 295.401,271.241 294.068,273.241 290.5,273.5C 290.737,274.791 290.404,275.791 289.5,276.5C 289.5,275.5 289.5,274.5 289.5,273.5C 289.278,270.924 287.945,270.09 285.5,271C 286.167,271.333 286.833,271.667 287.5,272C 286.263,272.232 285.263,272.732 284.5,273.5C 284.333,281.416 284.333,288.75 284.5,295.5C 284.849,298.045 284.016,300.045 282,301.5C 281.389,297.728 280.389,297.728 279,301.5C 278.547,290.129 278.381,278.962 278.5,268C 279.714,266.431 281.381,265.598 283.5,265.5C 287.448,266.306 291.115,266.972 294.5,267.5 Z"/></g>
<g><path style="opacity:0.006" fill="#f7fbfb" d="M 289.5,273.5 C 287.833,273.5 286.167,273.5 284.5,273.5C 285.263,272.732 286.263,272.232 287.5,272C 286.833,271.667 286.167,271.333 285.5,271C 287.945,270.09 289.278,270.924 289.5,273.5 Z"/></g>
<g><path style="opacity:0.989" fill="#385476" d="M 341.5,275.5 C 340.685,274.163 339.518,273.163 338,272.5C 337.5,279.826 337.334,287.159 337.5,294.5C 337.5,294.833 337.5,295.167 337.5,295.5C 336.596,296.209 336.263,297.209 336.5,298.5C 334.833,298.5 333.167,298.5 331.5,298.5C 331.663,296.143 331.497,293.81 331,291.5C 330.802,293.382 330.302,295.048 329.5,296.5C 329.334,288.493 329.5,280.493 330,272.5C 330.333,272.167 330.667,271.833 331,271.5C 332.026,276.785 332.693,282.118 333,287.5C 333.665,280.805 333.498,274.138 332.5,267.5C 336.588,266.079 340.588,266.245 344.5,268C 345.872,269.242 346.872,270.742 347.5,272.5C 346.38,274.596 344.88,274.93 343,273.5C 342.722,274.416 342.222,275.082 341.5,275.5 Z"/></g>
<g><path style="opacity:0.996" fill="#45637d" d="M 348.5,297.5 C 347.883,297.389 347.383,297.056 347,296.5C 346.833,295.167 346.667,293.833 346.5,292.5C 348.059,288.382 348.725,284.048 348.5,279.5C 347.5,279.5 346.5,279.5 345.5,279.5C 345.41,281.696 345.077,283.863 344.5,286C 344.316,287.376 343.649,288.209 342.5,288.5C 342.769,284.069 342.436,279.735 341.5,275.5C 342.222,275.082 342.722,274.416 343,273.5C 344.88,274.93 346.38,274.596 347.5,272.5C 346.872,270.742 345.872,269.242 344.5,268C 340.588,266.245 336.588,266.079 332.5,267.5C 333.498,274.138 333.665,280.805 333,287.5C 332.693,282.118 332.026,276.785 331,271.5C 330.667,271.833 330.333,272.167 330,272.5C 329.5,280.493 329.334,288.493 329.5,296.5C 328.343,288.01 328.176,279.343 329,270.5C 333.033,263.032 338.867,261.199 346.5,265C 348.041,266.579 349.208,268.413 350,270.5C 350.875,279.723 350.375,288.723 348.5,297.5 Z M 341.5,275.5 C 342.436,279.735 342.769,284.069 342.5,288.5C 342.675,290.621 342.341,292.621 341.5,294.5C 340.036,293.595 338.702,293.595 337.5,294.5C 337.334,287.159 337.5,279.826 338,272.5C 339.518,273.163 340.685,274.163 341.5,275.5 Z"/></g>
<g><path style="opacity:1" fill="#335273" d="M 210.5,264.5 C 212.621,264.325 214.621,264.659 216.5,265.5C 218.122,270.653 219.455,275.986 220.5,281.5C 220.67,282.822 220.337,283.989 219.5,285C 220.737,285.232 221.737,285.732 222.5,286.5C 221.193,287.153 219.86,287.82 218.5,288.5C 216.515,286.543 215.015,284.21 214,281.5C 213.716,283.886 212.716,284.552 211,283.5C 210.5,289.825 210.334,296.158 210.5,302.5C 209.167,289.833 209.167,277.167 210.5,264.5 Z"/></g>
<g><path style="opacity:1" fill="#224464" d="M 222.5,286.5 C 223.431,288.033 224.098,289.7 224.5,291.5C 222.513,294.789 220.179,294.789 217.5,291.5C 216.518,294.962 216.185,298.629 216.5,302.5C 214.5,302.5 212.5,302.5 210.5,302.5C 210.334,296.158 210.5,289.825 211,283.5C 212.716,284.552 213.716,283.886 214,281.5C 215.015,284.21 216.515,286.543 218.5,288.5C 219.86,287.82 221.193,287.153 222.5,286.5 Z"/></g>
<g><path style="opacity:1" fill="#254666" d="M 253.5,270.5 C 252.837,272.473 252.504,274.639 252.5,277C 252.628,279.707 253.295,282.207 254.5,284.5C 252.475,288.931 251.975,293.598 253,298.5C 253.333,298.833 253.667,299.167 254,299.5C 255.912,298.308 257.912,297.308 260,296.5C 261.269,297.905 261.769,299.571 261.5,301.5C 259.901,301.232 258.568,301.566 257.5,302.5C 253.833,302.5 250.167,302.5 246.5,302.5C 246.333,289.829 246.5,277.162 247,264.5C 252.289,264.405 257.789,264.405 263.5,264.5C 263.5,266.5 263.5,268.5 263.5,270.5C 260.167,270.5 256.833,270.5 253.5,270.5 Z"/></g>
<g><path style="opacity:0.992" fill="#4a667f" d="M 253.5,270.5 C 253.18,273.898 253.513,277.232 254.5,280.5C 258.139,278.56 260.139,279.56 260.5,283.5C 260.87,286.476 259.87,287.476 257.5,286.5C 253.993,288.461 252.66,291.461 253.5,295.5C 256.833,295.5 260.167,295.5 263.5,295.5C 263.5,297.833 263.5,300.167 263.5,302.5C 261.5,302.5 259.5,302.5 257.5,302.5C 258.568,301.566 259.901,301.232 261.5,301.5C 261.769,299.571 261.269,297.905 260,296.5C 257.912,297.308 255.912,298.308 254,299.5C 253.667,299.167 253.333,298.833 253,298.5C 251.975,293.598 252.475,288.931 254.5,284.5C 253.295,282.207 252.628,279.707 252.5,277C 252.504,274.639 252.837,272.473 253.5,270.5 Z"/></g>
<g><path style="opacity:1" fill="#28496d" d="M 348.5,297.5 C 348.5,298.167 348.5,298.833 348.5,299.5C 347.91,303.316 345.577,304.983 341.5,304.5C 335.741,304.299 331.741,301.632 329.5,296.5C 330.302,295.048 330.802,293.382 331,291.5C 331.497,293.81 331.663,296.143 331.5,298.5C 333.167,298.5 334.833,298.5 336.5,298.5C 336.263,297.209 336.596,296.209 337.5,295.5C 339.099,295.768 340.432,295.434 341.5,294.5C 342.341,292.621 342.675,290.621 342.5,288.5C 343.649,288.209 344.316,287.376 344.5,286C 345.077,283.863 345.41,281.696 345.5,279.5C 346.5,279.5 347.5,279.5 348.5,279.5C 348.725,284.048 348.059,288.382 346.5,292.5C 346.667,293.833 346.833,295.167 347,296.5C 347.383,297.056 347.883,297.389 348.5,297.5 Z"/></g>
<g><path style="opacity:0.016" fill="#80a5a5" d="M 341.5,294.5 C 340.432,295.434 339.099,295.768 337.5,295.5C 337.5,295.167 337.5,294.833 337.5,294.5C 338.702,293.595 340.036,293.595 341.5,294.5 Z"/></g>
<g><path style="opacity:0.486" fill="#708595" d="M 348.5,299.5 C 350.458,306.65 348.125,308.317 341.5,304.5C 345.577,304.983 347.91,303.316 348.5,299.5 Z"/></g>
</svg>
