<?xml version="1.0" standalone="no"?>
<!DOCTYPE svg PUBLIC "-//W3C//DTD SVG 20010904//EN"
 "http://www.w3.org/TR/2001/REC-SVG-20010904/DTD/svg10.dtd">
<svg version="1.0" xmlns="http://www.w3.org/2000/svg"
 width="500.000000pt" height="500.000000pt" viewBox="0 0 500.000000 500.000000"
 preserveAspectRatio="xMidYMid meet">

<g transform="translate(0.000000,500.000000) scale(0.100000,-0.100000)"
fill="#000000" stroke="none">
<path d="M2435 3844 c-16 -2 -60 -9 -98 -16 -76 -13 -79 -16 -160 -149 -25
-42 -57 -89 -70 -103 -14 -15 -31 -41 -38 -59 -7 -17 -21 -41 -32 -52 -24 -26
-29 -50 -25 -115 3 -49 6 -56 32 -69 27 -13 31 -12 48 9 10 13 16 30 14 37 -3
8 13 35 37 61 24 26 56 70 72 97 15 28 50 80 78 117 53 71 75 83 190 103 21 3
47 15 58 26 20 20 26 73 10 97 -9 14 -67 22 -116 16z"/>
<path d="M2739 3823 c-48 -8 -66 -90 -27 -117 27 -19 112 -20 178 -3 53 14 74
46 61 93 l-7 29 -90 1 c-49 1 -101 -1 -115 -3z"/>
<path d="M2890 3309 c-14 -6 -32 -12 -41 -14 -9 -2 -42 -15 -73 -29 -31 -14
-61 -26 -67 -26 -20 0 -174 -79 -219 -111 -25 -18 -67 -44 -95 -58 -58 -29
-217 -179 -281 -266 -34 -46 -44 -68 -44 -98 0 -29 4 -38 13 -34 8 3 39 8 70
12 64 8 108 43 127 101 7 21 31 48 68 75 31 24 71 57 88 74 37 36 349 193 455
229 66 22 116 32 202 41 12 1 27 3 34 4 8 1 7 12 -4 41 -13 33 -21 40 -43 40
-14 0 -30 4 -35 9 -15 15 -127 22 -155 10z"/>
<path d="M2085 2454 c24 -58 64 -101 165 -178 52 -39 101 -84 109 -101 40 -78
63 -104 109 -119 64 -22 145 -20 221 7 88 31 105 54 95 136 -8 77 -47 135
-114 169 -55 29 -115 25 -187 -11 l-48 -25 -61 37 c-34 20 -85 55 -114 79 -50
40 -54 42 -121 42 l-69 0 15 -36z m541 -294 c24 -9 25 -13 13 -25 -28 -27 -98
-17 -128 19 -12 14 -8 16 37 16 28 0 63 -5 78 -10z"/>
<path d="M3205 1716 c-16 -8 -43 -27 -58 -43 l-28 -30 0 -160 c0 -182 10 -215
76 -246 42 -20 128 -23 142 -4 17 21 38 188 38 297 0 92 -3 110 -23 142 -16
26 -32 39 -55 43 -18 4 -39 8 -47 10 -8 2 -28 -2 -45 -9z m-38 -268 c-3 -8 -6
-5 -6 6 -1 11 2 17 5 13 3 -3 4 -12 1 -19z m103 -107 c0 -11 -39 -25 -47 -18
-3 3 -2 10 2 16 8 13 45 15 45 2z"/>
<path d="M1863 1708 c-14 -17 -38 -78 -58 -150 -19 -68 -41 -76 -51 -20 -13
74 -36 147 -52 160 -9 6 -26 12 -37 12 -20 0 -23 -7 -29 -77 -7 -92 -6 -258 2
-333 7 -53 8 -55 40 -58 30 -3 32 -1 32 26 0 46 11 92 21 86 5 -3 9 -14 9 -25
0 -16 7 -19 40 -19 34 0 42 4 53 26 l12 27 6 -24 c4 -13 7 -41 8 -61 1 -37 2
-38 36 -38 l35 0 -1 173 c-1 94 -4 201 -8 237 -5 56 -9 65 -27 68 -11 2 -26
-3 -31 -10z"/>
<path d="M2498 1714 c-21 -7 -33 -153 -25 -314 9 -163 7 -160 76 -160 84 0
129 16 151 53 17 28 20 51 20 185 l0 153 -37 40 c-35 37 -42 40 -103 44 -36 2
-72 2 -82 -1z m130 -245 c-5 -135 -9 -148 -50 -149 -16 0 -18 13 -18 140 l0
140 36 0 37 0 -5 -131z"/>
<path d="M2886 1698 c-3 -13 -6 -121 -6 -241 l0 -218 33 3 32 3 8 75 c12 108
1 381 -15 391 -23 15 -46 9 -52 -13z"/>
<path d="M2096 1618 c-3 -50 -6 -156 -6 -235 l0 -144 103 3 102 3 2 38 1 37
-64 0 c-62 0 -64 1 -64 25 0 43 28 85 60 92 32 6 39 28 19 64 -7 13 -19 19
-37 17 -25 -3 -28 1 -36 43 -14 71 -7 79 64 79 l60 0 0 35 0 35 -99 0 -98 0
-7 -92z"/>
</g>
</svg>
